<mxfile host="app.diagrams.net" modified="2023-01-22T19:25:05.102Z" agent="5.0 (X11; Ubuntu)" etag="d8CrGzMM76Ajs2DVdoMn" version="20.7.4" type="github">
  <diagram name="Page-1" id="edf60f1a-56cd-e834-aa8a-f176f3a09ee4">
    <mxGraphModel dx="1378" dy="795" grid="0" gridSize="10" guides="1" tooltips="1" connect="1" arrows="1" fold="1" page="1" pageScale="1" pageWidth="1100" pageHeight="850" background="none" math="0" shadow="0">
      <root>
        <mxCell id="0" />
        <mxCell id="1" parent="0" />
        <mxCell id="Vs-fL6fA8awQTauuGviB-27" style="edgeStyle=orthogonalEdgeStyle;rounded=0;orthogonalLoop=1;jettySize=auto;html=1;exitX=0.5;exitY=1;exitDx=0;exitDy=0;entryX=0.5;entryY=0;entryDx=0;entryDy=0;fontFamily=Helvetica;fontSize=11;" edge="1" parent="1" source="VzjLReBIxwQ-Byek0vGd-7" target="Vs-fL6fA8awQTauuGviB-2">
          <mxGeometry relative="1" as="geometry" />
        </mxCell>
        <mxCell id="VzjLReBIxwQ-Byek0vGd-7" value="&lt;div&gt;Operator&lt;br&gt;&lt;/div&gt;&lt;div&gt;Clicked&lt;/div&gt;" style="shape=trapezoid;html=1;rounded=0;shadow=1;labelBackgroundColor=none;strokeWidth=1;fontFamily=Helvetica;fontSize=12;align=center;flipV=1;whiteSpace=wrap;" parent="1" vertex="1">
          <mxGeometry x="820" y="10" width="120" height="60" as="geometry" />
        </mxCell>
        <mxCell id="Vs-fL6fA8awQTauuGviB-4" style="edgeStyle=orthogonalEdgeStyle;rounded=0;orthogonalLoop=1;jettySize=auto;html=1;exitX=0;exitY=0.5;exitDx=0;exitDy=0;entryX=0.5;entryY=0;entryDx=0;entryDy=0;fontFamily=Helvetica;fontSize=10;" edge="1" parent="1" source="Vs-fL6fA8awQTauuGviB-2" target="Vs-fL6fA8awQTauuGviB-3">
          <mxGeometry relative="1" as="geometry" />
        </mxCell>
        <mxCell id="Vs-fL6fA8awQTauuGviB-5" value="Yes" style="edgeLabel;html=1;align=center;verticalAlign=middle;resizable=0;points=[];fontSize=10;fontFamily=Helvetica;" vertex="1" connectable="0" parent="Vs-fL6fA8awQTauuGviB-4">
          <mxGeometry x="0.04" y="2" relative="1" as="geometry">
            <mxPoint as="offset" />
          </mxGeometry>
        </mxCell>
        <mxCell id="Vs-fL6fA8awQTauuGviB-30" style="edgeStyle=orthogonalEdgeStyle;rounded=0;orthogonalLoop=1;jettySize=auto;html=1;exitX=1;exitY=0.5;exitDx=0;exitDy=0;fontFamily=Helvetica;fontSize=9;movable=1;resizable=1;rotatable=1;deletable=1;editable=1;connectable=1;entryX=0;entryY=0.5;entryDx=0;entryDy=0;" edge="1" parent="1" source="Vs-fL6fA8awQTauuGviB-2" target="Vs-fL6fA8awQTauuGviB-15">
          <mxGeometry relative="1" as="geometry">
            <mxPoint x="980" y="170" as="targetPoint" />
          </mxGeometry>
        </mxCell>
        <mxCell id="Vs-fL6fA8awQTauuGviB-31" value="No" style="edgeLabel;html=1;align=center;verticalAlign=middle;resizable=0;points=[];fontSize=9;fontFamily=Helvetica;" vertex="1" connectable="0" parent="Vs-fL6fA8awQTauuGviB-30">
          <mxGeometry x="-0.3333" relative="1" as="geometry">
            <mxPoint as="offset" />
          </mxGeometry>
        </mxCell>
        <mxCell id="Vs-fL6fA8awQTauuGviB-2" value="Was another operator already clicked?" style="rhombus;whiteSpace=wrap;html=1;fontFamily=Helvetica;fontSize=10;" vertex="1" parent="1">
          <mxGeometry x="805" y="100" width="150" height="90" as="geometry" />
        </mxCell>
        <mxCell id="Vs-fL6fA8awQTauuGviB-3" value="Change to new operator" style="rounded=0;whiteSpace=wrap;html=1;fontFamily=Helvetica;fontSize=10;" vertex="1" parent="1">
          <mxGeometry x="660" y="210" width="120" height="60" as="geometry" />
        </mxCell>
        <mxCell id="Vs-fL6fA8awQTauuGviB-13" style="edgeStyle=orthogonalEdgeStyle;rounded=0;orthogonalLoop=1;jettySize=auto;html=1;exitX=0.5;exitY=1;exitDx=0;exitDy=0;entryX=0.5;entryY=0;entryDx=0;entryDy=0;fontFamily=Helvetica;fontSize=10;" edge="1" parent="1" source="Vs-fL6fA8awQTauuGviB-6" target="Vs-fL6fA8awQTauuGviB-9">
          <mxGeometry relative="1" as="geometry" />
        </mxCell>
        <mxCell id="Vs-fL6fA8awQTauuGviB-6" value="Remove clicked from old operators classList" style="rounded=0;whiteSpace=wrap;html=1;fontFamily=Helvetica;fontSize=10;" vertex="1" parent="1">
          <mxGeometry x="660" y="290" width="120" height="60" as="geometry" />
        </mxCell>
        <mxCell id="Vs-fL6fA8awQTauuGviB-14" style="edgeStyle=orthogonalEdgeStyle;rounded=0;orthogonalLoop=1;jettySize=auto;html=1;exitX=0.5;exitY=1;exitDx=0;exitDy=0;entryX=0.5;entryY=0;entryDx=0;entryDy=0;fontFamily=Helvetica;fontSize=10;" edge="1" parent="1" source="Vs-fL6fA8awQTauuGviB-9" target="Vs-fL6fA8awQTauuGviB-10">
          <mxGeometry relative="1" as="geometry" />
        </mxCell>
        <mxCell id="Vs-fL6fA8awQTauuGviB-9" value="Remove current from old operators classList" style="rounded=0;whiteSpace=wrap;html=1;fontFamily=Helvetica;fontSize=10;" vertex="1" parent="1">
          <mxGeometry x="660" y="370" width="120" height="60" as="geometry" />
        </mxCell>
        <mxCell id="Vs-fL6fA8awQTauuGviB-10" value="Activate New Operator" style="swimlane;whiteSpace=wrap;html=1;fontFamily=Helvetica;fontSize=10;" vertex="1" collapsed="1" parent="1">
          <mxGeometry x="630" y="450" width="180" height="30" as="geometry">
            <mxRectangle x="870" y="270" width="200" height="370" as="alternateBounds" />
          </mxGeometry>
        </mxCell>
        <mxCell id="VzjLReBIxwQ-Byek0vGd-8" value="Highlight operator button" style="rounded=0;whiteSpace=wrap;html=1;fontFamily=Helvetica;fontSize=12;" parent="Vs-fL6fA8awQTauuGviB-10" vertex="1">
          <mxGeometry x="40" y="40" width="120" height="60" as="geometry" />
        </mxCell>
        <mxCell id="VzjLReBIxwQ-Byek0vGd-9" value="Add clicked to classList" style="rounded=0;whiteSpace=wrap;html=1;fontFamily=Helvetica;fontSize=12;" parent="Vs-fL6fA8awQTauuGviB-10" vertex="1">
          <mxGeometry x="40" y="120" width="120" height="60" as="geometry" />
        </mxCell>
        <mxCell id="VzjLReBIxwQ-Byek0vGd-10" value="Add current to classList?" style="rounded=0;whiteSpace=wrap;html=1;fontFamily=Helvetica;fontSize=12;" parent="Vs-fL6fA8awQTauuGviB-10" vertex="1">
          <mxGeometry x="40" y="190" width="120" height="60" as="geometry" />
        </mxCell>
        <mxCell id="Vs-fL6fA8awQTauuGviB-11" value="Put operator in toCalc array" style="rounded=0;whiteSpace=wrap;html=1;fontFamily=Helvetica;fontSize=12;" vertex="1" parent="Vs-fL6fA8awQTauuGviB-10">
          <mxGeometry x="40" y="260" width="120" height="60" as="geometry" />
        </mxCell>
        <mxCell id="Vs-fL6fA8awQTauuGviB-12" value="" style="endArrow=none;html=1;rounded=0;fontFamily=Helvetica;fontSize=10;entryX=0.5;entryY=1;entryDx=0;entryDy=0;" edge="1" parent="1" source="Vs-fL6fA8awQTauuGviB-6" target="Vs-fL6fA8awQTauuGviB-3">
          <mxGeometry width="50" height="50" relative="1" as="geometry">
            <mxPoint x="600" y="330" as="sourcePoint" />
            <mxPoint x="650" y="280" as="targetPoint" />
          </mxGeometry>
        </mxCell>
        <mxCell id="Vs-fL6fA8awQTauuGviB-19" style="edgeStyle=orthogonalEdgeStyle;rounded=0;orthogonalLoop=1;jettySize=auto;html=1;exitX=1;exitY=0.5;exitDx=0;exitDy=0;entryX=0;entryY=0.5;entryDx=0;entryDy=0;fontFamily=Helvetica;fontSize=11;" edge="1" parent="1" source="Vs-fL6fA8awQTauuGviB-15" target="Vs-fL6fA8awQTauuGviB-18">
          <mxGeometry relative="1" as="geometry" />
        </mxCell>
        <mxCell id="Vs-fL6fA8awQTauuGviB-20" value="No" style="edgeLabel;html=1;align=center;verticalAlign=middle;resizable=0;points=[];fontSize=11;fontFamily=Helvetica;" vertex="1" connectable="0" parent="Vs-fL6fA8awQTauuGviB-19">
          <mxGeometry x="-0.2767" relative="1" as="geometry">
            <mxPoint y="-1" as="offset" />
          </mxGeometry>
        </mxCell>
        <mxCell id="Vs-fL6fA8awQTauuGviB-26" style="edgeStyle=orthogonalEdgeStyle;rounded=0;orthogonalLoop=1;jettySize=auto;html=1;exitX=0.5;exitY=1;exitDx=0;exitDy=0;fontFamily=Helvetica;fontSize=11;entryX=0.5;entryY=0;entryDx=0;entryDy=0;" edge="1" parent="1" source="Vs-fL6fA8awQTauuGviB-15" target="Vs-fL6fA8awQTauuGviB-29">
          <mxGeometry relative="1" as="geometry">
            <mxPoint x="1170" y="250" as="targetPoint" />
          </mxGeometry>
        </mxCell>
        <mxCell id="Vs-fL6fA8awQTauuGviB-34" value="Yes" style="edgeLabel;html=1;align=center;verticalAlign=middle;resizable=0;points=[];fontSize=9;fontFamily=Helvetica;" vertex="1" connectable="0" parent="Vs-fL6fA8awQTauuGviB-26">
          <mxGeometry x="-0.3143" relative="1" as="geometry">
            <mxPoint as="offset" />
          </mxGeometry>
        </mxCell>
        <mxCell id="Vs-fL6fA8awQTauuGviB-15" value="Is there a number on the screen?" style="rhombus;whiteSpace=wrap;html=1;fontFamily=Helvetica;fontSize=10;" vertex="1" parent="1">
          <mxGeometry x="1010" y="100" width="150" height="90" as="geometry" />
        </mxCell>
        <mxCell id="Vs-fL6fA8awQTauuGviB-18" value="Display ERROR" style="rounded=1;whiteSpace=wrap;html=1;shadow=1;labelBackgroundColor=none;strokeWidth=1;fontFamily=Helvetica;fontSize=11;align=center;" vertex="1" parent="1">
          <mxGeometry x="1250" y="125" width="100" height="40" as="geometry" />
        </mxCell>
        <mxCell id="Vs-fL6fA8awQTauuGviB-21" value="Activate New Operator" style="swimlane;whiteSpace=wrap;html=1;fontFamily=Helvetica;fontSize=10;" vertex="1" collapsed="1" parent="1">
          <mxGeometry x="1270" y="280" width="180" height="30" as="geometry">
            <mxRectangle x="1270" y="280" width="200" height="370" as="alternateBounds" />
          </mxGeometry>
        </mxCell>
        <mxCell id="Vs-fL6fA8awQTauuGviB-22" value="Highlight operator button" style="rounded=0;whiteSpace=wrap;html=1;fontFamily=Helvetica;fontSize=12;" vertex="1" parent="Vs-fL6fA8awQTauuGviB-21">
          <mxGeometry x="40" y="40" width="120" height="60" as="geometry" />
        </mxCell>
        <mxCell id="Vs-fL6fA8awQTauuGviB-23" value="Add clicked to classList" style="rounded=0;whiteSpace=wrap;html=1;fontFamily=Helvetica;fontSize=12;" vertex="1" parent="Vs-fL6fA8awQTauuGviB-21">
          <mxGeometry x="40" y="120" width="120" height="60" as="geometry" />
        </mxCell>
        <mxCell id="Vs-fL6fA8awQTauuGviB-24" value="Add current to classList?" style="rounded=0;whiteSpace=wrap;html=1;fontFamily=Helvetica;fontSize=12;" vertex="1" parent="Vs-fL6fA8awQTauuGviB-21">
          <mxGeometry x="40" y="190" width="120" height="60" as="geometry" />
        </mxCell>
        <mxCell id="Vs-fL6fA8awQTauuGviB-25" value="Put operator in toCalc array" style="rounded=0;whiteSpace=wrap;html=1;fontFamily=Helvetica;fontSize=12;" vertex="1" parent="Vs-fL6fA8awQTauuGviB-21">
          <mxGeometry x="40" y="260" width="120" height="60" as="geometry" />
        </mxCell>
        <mxCell id="Vs-fL6fA8awQTauuGviB-36" style="edgeStyle=orthogonalEdgeStyle;rounded=0;orthogonalLoop=1;jettySize=auto;html=1;exitX=0.5;exitY=1;exitDx=0;exitDy=0;entryX=0.5;entryY=0;entryDx=0;entryDy=0;fontFamily=Helvetica;fontSize=9;" edge="1" parent="1" source="Vs-fL6fA8awQTauuGviB-29" target="Vs-fL6fA8awQTauuGviB-35">
          <mxGeometry relative="1" as="geometry" />
        </mxCell>
        <mxCell id="Vs-fL6fA8awQTauuGviB-45" value="Yes" style="edgeLabel;html=1;align=center;verticalAlign=middle;resizable=0;points=[];fontSize=9;fontFamily=Helvetica;" vertex="1" connectable="0" parent="Vs-fL6fA8awQTauuGviB-36">
          <mxGeometry x="-0.316" y="-1" relative="1" as="geometry">
            <mxPoint as="offset" />
          </mxGeometry>
        </mxCell>
        <mxCell id="Vs-fL6fA8awQTauuGviB-43" style="edgeStyle=orthogonalEdgeStyle;rounded=0;orthogonalLoop=1;jettySize=auto;html=1;exitX=1;exitY=0.5;exitDx=0;exitDy=0;entryX=0;entryY=0.5;entryDx=0;entryDy=0;fontFamily=Helvetica;fontSize=9;" edge="1" parent="1" source="Vs-fL6fA8awQTauuGviB-29" target="Vs-fL6fA8awQTauuGviB-21">
          <mxGeometry relative="1" as="geometry" />
        </mxCell>
        <mxCell id="Vs-fL6fA8awQTauuGviB-44" value="No" style="edgeLabel;html=1;align=center;verticalAlign=middle;resizable=0;points=[];fontSize=9;fontFamily=Helvetica;" vertex="1" connectable="0" parent="Vs-fL6fA8awQTauuGviB-43">
          <mxGeometry x="-0.3273" y="1" relative="1" as="geometry">
            <mxPoint as="offset" />
          </mxGeometry>
        </mxCell>
        <mxCell id="Vs-fL6fA8awQTauuGviB-29" value="Is the operator clicked a single number operator?" style="rhombus;whiteSpace=wrap;html=1;fontFamily=Helvetica;fontSize=9;" vertex="1" parent="1">
          <mxGeometry x="1010" y="250" width="150" height="90" as="geometry" />
        </mxCell>
        <mxCell id="Vs-fL6fA8awQTauuGviB-35" value="Perform operation" style="swimlane;whiteSpace=wrap;html=1;fontFamily=Helvetica;fontSize=9;" vertex="1" collapsed="1" parent="1">
          <mxGeometry x="1015" y="385" width="140" height="30" as="geometry">
            <mxRectangle x="985" y="380" width="195" height="320" as="alternateBounds" />
          </mxGeometry>
        </mxCell>
        <mxCell id="Vs-fL6fA8awQTauuGviB-38" value="Send number and operator to calculate" style="rounded=0;whiteSpace=wrap;html=1;fontFamily=Helvetica;fontSize=9;" vertex="1" parent="Vs-fL6fA8awQTauuGviB-35">
          <mxGeometry x="40" y="30" width="120" height="60" as="geometry" />
        </mxCell>
        <mxCell id="Vs-fL6fA8awQTauuGviB-40" value="Display answer on screen" style="rounded=0;whiteSpace=wrap;html=1;fontFamily=Helvetica;fontSize=9;" vertex="1" parent="Vs-fL6fA8awQTauuGviB-35">
          <mxGeometry x="40" y="100" width="120" height="60" as="geometry" />
        </mxCell>
        <mxCell id="Vs-fL6fA8awQTauuGviB-41" value="Add answer to toCalc" style="rounded=0;whiteSpace=wrap;html=1;fontFamily=Helvetica;fontSize=9;" vertex="1" parent="Vs-fL6fA8awQTauuGviB-35">
          <mxGeometry x="40" y="240" width="120" height="60" as="geometry" />
        </mxCell>
        <mxCell id="Vs-fL6fA8awQTauuGviB-42" value="Clear toCalc" style="rounded=0;whiteSpace=wrap;html=1;fontFamily=Helvetica;fontSize=9;" vertex="1" parent="Vs-fL6fA8awQTauuGviB-35">
          <mxGeometry x="40" y="170" width="120" height="60" as="geometry" />
        </mxCell>
        <mxCell id="VzjLReBIxwQ-Byek0vGd-2" value="&lt;div&gt;Number &lt;br&gt;&lt;/div&gt;&lt;div&gt;Clicked&lt;/div&gt;" style="shape=trapezoid;html=1;rounded=0;shadow=1;labelBackgroundColor=none;strokeWidth=1;fontFamily=Helvetica;fontSize=12;align=center;flipV=1;whiteSpace=wrap;" parent="1" vertex="1">
          <mxGeometry x="417" y="30" width="120" height="60" as="geometry" />
        </mxCell>
        <mxCell id="VzjLReBIxwQ-Byek0vGd-3" value="Add new number to the display" style="rounded=0;whiteSpace=wrap;html=1;" parent="1" vertex="1">
          <mxGeometry x="262" y="240" width="120" height="60" as="geometry" />
        </mxCell>
        <mxCell id="VzjLReBIxwQ-Byek0vGd-4" value="Flag display as changed" style="rounded=0;whiteSpace=wrap;html=1;fontFamily=Helvetica;fontSize=12;" parent="1" vertex="1">
          <mxGeometry x="502" y="340" width="120" height="60" as="geometry" />
        </mxCell>
        <mxCell id="VzjLReBIxwQ-Byek0vGd-5" value="Put number in toCalc array" style="rounded=0;whiteSpace=wrap;html=1;fontFamily=Helvetica;fontSize=12;" parent="1" vertex="1">
          <mxGeometry x="502" y="420" width="120" height="60" as="geometry" />
        </mxCell>
        <mxCell id="VzjLReBIxwQ-Byek0vGd-11" value="Was there already another number on screen?" style="rhombus;whiteSpace=wrap;html=1;fontFamily=Helvetica;fontSize=10;" parent="1" vertex="1">
          <mxGeometry x="402" y="140" width="150" height="70" as="geometry" />
        </mxCell>
        <mxCell id="VzjLReBIxwQ-Byek0vGd-12" value="" style="endArrow=classic;html=1;rounded=0;fontFamily=Helvetica;fontSize=10;exitX=0.5;exitY=1;exitDx=0;exitDy=0;entryX=0.5;entryY=0;entryDx=0;entryDy=0;" parent="1" source="VzjLReBIxwQ-Byek0vGd-2" target="VzjLReBIxwQ-Byek0vGd-11" edge="1">
          <mxGeometry width="50" height="50" relative="1" as="geometry">
            <mxPoint x="452" y="310" as="sourcePoint" />
            <mxPoint x="482" y="130" as="targetPoint" />
          </mxGeometry>
        </mxCell>
        <mxCell id="VzjLReBIxwQ-Byek0vGd-13" value="" style="endArrow=classic;html=1;rounded=0;fontFamily=Helvetica;fontSize=10;exitX=0;exitY=0.5;exitDx=0;exitDy=0;entryX=0.5;entryY=0;entryDx=0;entryDy=0;" parent="1" source="VzjLReBIxwQ-Byek0vGd-11" target="VzjLReBIxwQ-Byek0vGd-3" edge="1">
          <mxGeometry width="50" height="50" relative="1" as="geometry">
            <mxPoint x="452" y="310" as="sourcePoint" />
            <mxPoint x="502" y="260" as="targetPoint" />
          </mxGeometry>
        </mxCell>
        <mxCell id="VzjLReBIxwQ-Byek0vGd-14" value="Yes" style="edgeLabel;html=1;align=center;verticalAlign=middle;resizable=0;points=[];fontSize=10;fontFamily=Helvetica;" parent="VzjLReBIxwQ-Byek0vGd-13" vertex="1" connectable="0">
          <mxGeometry x="-0.1374" relative="1" as="geometry">
            <mxPoint as="offset" />
          </mxGeometry>
        </mxCell>
        <mxCell id="VzjLReBIxwQ-Byek0vGd-17" value="" style="endArrow=classic;html=1;rounded=0;fontFamily=Helvetica;fontSize=10;exitX=1;exitY=0.5;exitDx=0;exitDy=0;" parent="1" source="VzjLReBIxwQ-Byek0vGd-11" edge="1">
          <mxGeometry width="50" height="50" relative="1" as="geometry">
            <mxPoint x="572" y="235" as="sourcePoint" />
            <mxPoint x="562" y="250" as="targetPoint" />
          </mxGeometry>
        </mxCell>
        <mxCell id="VzjLReBIxwQ-Byek0vGd-18" value="No" style="edgeLabel;html=1;align=center;verticalAlign=middle;resizable=0;points=[];fontSize=10;fontFamily=Helvetica;" parent="VzjLReBIxwQ-Byek0vGd-17" vertex="1" connectable="0">
          <mxGeometry x="-0.1374" relative="1" as="geometry">
            <mxPoint as="offset" />
          </mxGeometry>
        </mxCell>
        <mxCell id="VzjLReBIxwQ-Byek0vGd-19" value="Change display to new number" style="rounded=0;whiteSpace=wrap;html=1;fontFamily=Helvetica;fontSize=10;" parent="1" vertex="1">
          <mxGeometry x="502" y="250" width="120" height="60" as="geometry" />
        </mxCell>
        <mxCell id="VzjLReBIxwQ-Byek0vGd-20" value="" style="endArrow=none;html=1;rounded=0;fontFamily=Helvetica;fontSize=10;entryX=0.5;entryY=1;entryDx=0;entryDy=0;exitX=0.5;exitY=0;exitDx=0;exitDy=0;" parent="1" source="VzjLReBIxwQ-Byek0vGd-4" target="VzjLReBIxwQ-Byek0vGd-19" edge="1">
          <mxGeometry width="50" height="50" relative="1" as="geometry">
            <mxPoint x="402" y="330" as="sourcePoint" />
            <mxPoint x="452" y="280" as="targetPoint" />
          </mxGeometry>
        </mxCell>
        <mxCell id="VzjLReBIxwQ-Byek0vGd-21" value="" style="endArrow=none;html=1;rounded=0;fontFamily=Helvetica;fontSize=10;entryX=0.5;entryY=1;entryDx=0;entryDy=0;exitX=0.5;exitY=0;exitDx=0;exitDy=0;" parent="1" source="VzjLReBIxwQ-Byek0vGd-5" target="VzjLReBIxwQ-Byek0vGd-4" edge="1">
          <mxGeometry width="50" height="50" relative="1" as="geometry">
            <mxPoint x="402" y="330" as="sourcePoint" />
            <mxPoint x="452" y="280" as="targetPoint" />
          </mxGeometry>
        </mxCell>
      </root>
    </mxGraphModel>
  </diagram>
</mxfile>
